<svg width="55" height="55" viewBox="0 0 55 55" fill="none" xmlns="http://www.w3.org/2000/svg">
<path fill-rule="evenodd" clip-rule="evenodd" d="M0 27.5C0 12.32 12.32 0 27.5 0C42.68 0 55 12.32 55 27.5V31.4325C55 36.85 50.7925 41.25 45.375 41.25C42.1025 41.25 39.0225 39.655 37.235 37.2075C34.76 39.71 31.295 41.25 27.5 41.25C19.91 41.25 13.75 35.09 13.75 27.5C13.75 19.91 19.91 13.75 27.5 13.75C35.09 13.75 41.25 19.91 41.25 27.5V31.4325C41.25 33.605 43.2025 35.75 45.375 35.75C47.5475 35.75 49.5 33.605 49.5 31.4325V27.5C49.5 15.565 39.435 5.5 27.5 5.5C15.565 5.5 5.5 15.565 5.5 27.5C5.5 39.435 15.565 49.5 27.5 49.5H41.25V55H27.5C12.32 55 0 42.68 0 27.5ZM19.25 27.5C19.25 32.065 22.935 35.75 27.5 35.75C32.065 35.75 35.75 32.065 35.75 27.5C35.75 22.935 32.065 19.25 27.5 19.25C22.935 19.25 19.25 22.935 19.25 27.5Z" fill="#90B2C9" fill-opacity="0.54"/>
</svg>
